<?xml version="1.0" encoding="utf-8"?>
<svg viewBox="0 0 500 500" xmlns="http://www.w3.org/2000/svg">
  <g transform="matrix(0.802016019821167, 0, 0, 0.802016019821167, 41.7073059082031, 47.05344772338868)" style="">
    <ellipse style="stroke: rgba(255, 255, 255, 0); fill: rgb(2, 146, 174);" cx="260.482" cy="252.429" rx="309.162" ry="309.162"/>
    <path d="M 403.979 43.075 L 124.139 43.075 C 113.346 43.075 104.566 51.855 104.566 62.648 L 104.566 115.95 C 104.566 133.756 112.431 149.751 124.857 160.671 C 124.664 161.277 124.555 161.921 124.555 162.592 L 124.555 329.164 C 124.555 406.084 187.137 468.667 264.057 468.667 C 340.983 468.667 403.565 406.084 403.565 329.164 L 403.565 162.592 C 403.565 161.921 403.454 161.277 403.26 160.671 C 415.686 149.751 423.552 133.756 423.552 115.95 L 423.552 62.648 C 423.552 51.855 414.772 43.075 403.979 43.075 Z M 391.071 329.164 C 391.071 399.197 334.095 456.175 264.057 456.175 C 194.025 456.175 137.047 399.197 137.047 329.164 L 137.047 168.965 C 145.177 173.132 154.372 175.501 164.115 175.501 L 364.002 175.501 C 373.746 175.501 382.943 173.132 391.071 168.965 L 391.071 329.164 Z M 411.059 115.95 C 411.059 141.897 389.949 163.008 364.002 163.008 L 164.115 163.008 C 138.169 163.008 117.059 141.897 117.059 115.95 L 117.059 62.648 C 117.059 58.745 120.236 55.568 124.139 55.568 L 403.979 55.568 C 407.883 55.568 411.059 58.745 411.059 62.648 L 411.059 115.95 Z" style="fill: rgb(255, 255, 255); stroke-miterlimit: 30; paint-order: fill; stroke-linecap: square; stroke-linejoin: round; stroke: rgb(255, 255, 255); stroke-width: 8.72801px;"/>
    <path d="M 299.41 209.274 L 230.105 209.274 C 201.642 209.274 178.485 232.431 178.485 260.892 L 178.485 316.364 C 178.485 338.931 186.862 360.502 202.074 377.105 C 217.485 393.927 238.268 403.77 260.594 404.821 C 262.003 404.888 263.406 404.922 264.806 404.922 C 287.1 404.922 308.092 396.542 324.3 381.078 C 341.537 364.634 351.029 342.462 351.029 318.649 L 351.029 260.892 C 351.029 232.431 327.873 209.274 299.41 209.274 Z" style="stroke-miterlimit: 30; paint-order: fill; stroke-linecap: square; stroke-linejoin: round; stroke: rgb(255, 255, 255); fill: rgb(82, 189, 255); stroke-width: 21.1966px;"/>
    <rect x="212.302" y="398.554" width="75.26" height="33.487" style="stroke: rgb(255, 255, 255); stroke-width: 0px; transform-box: fill-box; transform-origin: 50% 50%; fill: rgb(253, 224, 71);" rx="14.155" ry="14.155" transform="matrix(0.681999, 0.731353, -0.731353, 0.681999, 70.204354, -29.338257)"/>
    <text style="fill: rgb(253, 224, 71); font-family: Satoshi; font-size: 59.8px; font-weight: 700; white-space: pre;" x="141.526" y="127.916">Potty Pal</text>
  </g>
</svg>